<?xml version="1.0" encoding="UTF-8"?>
<svg xmlns="http://www.w3.org/2000/svg" viewBox="0 0 1254 1254" width="1254" height="1254" role="img" aria-labelledby="title desc">
  <title id="title">SCBIRLab aspect logo</title>
  <desc id="desc">Vector trace of the generated SCBIRLab aspect logo. Converted from PNG into quantized SVG paths.</desc>
  <g fill-rule="evenodd" stroke="none">
    <path fill="#04BDCE" d="M 229 973 L 222 975 L 247 988 L 251 992 L 251 996 L 246 999 L 226 988 L 215 979 L 210 988 L 210 997 L 221 1015 L 233 1016 L 240 1014 L 214 999 L 212 996 L 213 992 L 218 990 L 243 1004 L 247 1008 L 250 1007 L 253 1001 L 253 993 L 248 981 L 242 974 Z M 1060 715 L 1055 721 L 1056 763 L 1062 767 L 1104 766 L 1108 761 L 1107 718 L 1100 714 Z M 987 716 L 983 722 L 983 759 L 985 764 L 990 767 L 1030 767 L 1034 765 L 1037 760 L 1037 721 L 1035 717 L 1029 714 L 992 714 Z M 917 715 L 912 721 L 913 763 L 919 767 L 961 766 L 965 762 L 965 719 L 960 715 L 952 714 Z M 846 715 L 841 721 L 841 762 L 848 767 L 890 766 L 894 761 L 893 718 L 889 715 L 880 714 Z M 641 714 L 612 738 L 581 776 L 563 805 L 523 880 L 496 920 L 470 947 L 458 956 L 435 968 L 415 974 L 394 977 L 333 977 L 290 903 L 283 900 L 192 900 L 187 902 L 180 910 L 141 981 L 141 986 L 146 997 L 182 1061 L 189 1066 L 285 1066 L 293 1060 L 333 990 L 402 990 L 439 986 L 472 975 L 494 963 L 508 953 L 537 925 L 550 909 L 610 817 L 628 795 L 641 783 Z M 242 948 L 246 946 L 263 955 L 267 959 L 267 962 L 264 965 L 255 962 L 241 952 Z M 245 917 L 248 920 L 248 924 L 242 932 L 239 947 L 242 956 L 248 965 L 264 965 L 272 962 L 277 958 L 247 941 L 244 938 L 244 934 L 247 931 L 259 936 L 281 950 L 285 943 L 291 942 L 294 948 L 289 959 L 281 968 L 275 972 L 256 976 L 263 990 L 263 1003 L 261 1009 L 251 1020 L 239 1025 L 230 1026 L 232 1031 L 232 1043 L 227 1051 L 223 1052 L 219 1049 L 219 1044 L 222 1040 L 222 1033 L 216 1024 L 196 1024 L 190 1027 L 182 1036 L 178 1037 L 174 1033 L 174 1030 L 184 1019 L 194 1014 L 207 1013 L 201 1002 L 199 993 L 200 984 L 204 976 L 212 968 L 218 965 L 235 963 L 230 953 L 229 938 L 236 922 L 241 917 Z M 690 685 L 679 688 L 654 705 L 654 773 L 690 744 Z M 728 675 L 702 682 L 702 735 L 728 715 Z M 766 664 L 741 672 L 741 705 L 766 686 Z M 806 652 L 801 652 L 780 660 L 779 676 L 803 658 Z"/>
    <path fill="#E6490A" d="M 780 568 L 781 578 L 786 572 L 783 572 Z M 743 540 L 742 570 L 754 575 L 756 574 L 757 576 L 764 577 L 766 579 L 766 556 L 764 557 L 761 553 L 752 550 L 750 543 L 748 544 L 745 539 Z M 764 568 L 766 569 L 765 577 L 763 576 Z M 704 508 L 704 555 L 724 563 L 727 556 L 727 539 L 725 533 L 726 525 L 720 519 L 716 519 L 715 515 L 712 515 Z M 654 472 L 654 528 L 662 533 L 665 537 L 673 540 L 675 543 L 689 550 L 689 494 L 687 494 L 673 481 L 670 481 L 667 476 L 665 476 L 659 470 L 661 472 L 660 474 Z M 1054 462 L 1054 500 L 1056 502 L 1056 506 L 1064 508 L 1084 506 L 1095 507 L 1096 509 L 1099 507 L 1100 509 L 1101 507 L 1104 507 L 1106 504 L 1108 504 L 1106 500 L 1107 460 L 1104 456 L 1101 458 L 1099 455 L 1093 457 L 1091 455 L 1059 456 Z M 984 459 L 983 501 L 986 507 L 1033 507 L 1037 503 L 1037 462 L 1033 456 L 1031 459 L 1026 459 L 1026 456 L 1002 455 L 989 456 Z M 912 460 L 914 473 L 913 503 L 916 508 L 917 506 L 919 508 L 926 508 L 927 506 L 961 507 L 963 504 L 965 504 L 963 482 L 964 458 L 959 455 L 919 455 Z M 845 456 L 842 459 L 840 467 L 841 504 L 844 507 L 854 506 L 855 508 L 862 508 L 863 506 L 868 506 L 869 508 L 872 508 L 873 506 L 883 506 L 890 508 L 892 503 L 892 466 L 894 465 L 892 462 L 894 460 L 892 457 L 875 455 Z M 239 201 L 215 211 L 215 214 L 211 218 L 210 246 L 213 246 L 218 251 L 220 250 L 230 258 L 232 257 L 236 260 L 249 252 L 251 253 L 257 250 L 258 247 L 261 247 L 260 226 L 262 217 Z M 183 146 L 177 157 L 177 160 L 174 162 L 170 172 L 166 175 L 167 177 L 165 181 L 163 182 L 142 222 L 142 230 L 146 235 L 145 238 L 149 241 L 150 247 L 154 250 L 156 256 L 158 257 L 158 261 L 162 264 L 164 272 L 169 276 L 169 281 L 173 285 L 174 290 L 177 292 L 178 297 L 182 300 L 182 304 L 184 304 L 190 310 L 198 308 L 286 309 L 293 304 L 295 299 L 297 299 L 297 295 L 299 292 L 301 292 L 306 278 L 311 274 L 313 266 L 316 265 L 317 260 L 320 258 L 322 250 L 324 249 L 330 237 L 337 231 L 381 232 L 384 234 L 389 232 L 394 233 L 395 235 L 407 235 L 408 237 L 411 236 L 412 238 L 419 238 L 449 250 L 450 253 L 452 252 L 462 261 L 464 260 L 467 265 L 469 265 L 487 283 L 487 285 L 491 288 L 491 290 L 506 309 L 506 312 L 513 321 L 513 324 L 531 357 L 530 359 L 534 364 L 533 366 L 539 373 L 539 377 L 542 381 L 541 384 L 546 389 L 545 393 L 547 393 L 549 396 L 548 400 L 553 407 L 552 409 L 557 414 L 564 433 L 570 439 L 570 444 L 573 445 L 574 449 L 576 450 L 575 452 L 578 453 L 577 455 L 583 464 L 587 466 L 586 468 L 588 468 L 594 475 L 593 477 L 595 477 L 601 483 L 601 486 L 612 497 L 616 498 L 620 504 L 622 503 L 626 509 L 640 518 L 640 454 L 630 446 L 630 444 L 622 435 L 619 434 L 619 431 L 615 428 L 607 414 L 604 412 L 577 364 L 573 354 L 570 351 L 566 341 L 562 337 L 561 332 L 559 331 L 555 322 L 551 319 L 551 315 L 548 314 L 549 312 L 547 309 L 544 308 L 545 306 L 542 305 L 543 303 L 540 302 L 541 300 L 539 300 L 535 295 L 533 289 L 529 287 L 530 285 L 523 280 L 524 278 L 509 263 L 507 264 L 503 258 L 487 247 L 468 237 L 435 226 L 428 226 L 425 224 L 423 225 L 412 222 L 408 223 L 403 221 L 338 220 L 340 221 L 339 223 L 335 222 L 333 216 L 329 212 L 329 209 L 324 203 L 324 200 L 320 197 L 318 189 L 313 185 L 314 182 L 305 170 L 304 164 L 299 160 L 299 155 L 296 154 L 293 146 L 290 145 L 291 143 L 286 143 L 285 141 L 191 141 L 190 143 L 188 142 Z M 241 162 L 249 163 L 250 166 L 254 168 L 253 171 L 255 172 L 252 181 L 247 182 L 243 192 L 256 199 L 258 202 L 261 202 L 274 212 L 275 221 L 274 226 L 272 227 L 274 245 L 272 246 L 272 250 L 278 257 L 281 255 L 288 257 L 294 263 L 293 265 L 296 268 L 295 271 L 293 270 L 294 272 L 292 275 L 284 280 L 281 278 L 279 279 L 273 273 L 273 271 L 270 270 L 270 266 L 273 264 L 270 263 L 266 258 L 261 262 L 258 260 L 251 265 L 236 271 L 235 273 L 211 258 L 209 261 L 207 261 L 204 258 L 206 255 L 201 261 L 201 266 L 192 274 L 189 274 L 181 266 L 182 258 L 189 251 L 195 251 L 197 249 L 195 246 L 200 241 L 200 221 L 197 220 L 192 214 L 194 212 L 194 205 L 199 199 L 208 199 L 206 198 L 207 196 L 210 196 L 212 201 L 231 193 L 235 189 L 234 183 L 237 180 L 232 175 L 234 174 L 233 172 L 235 167 Z"/>
    <path fill="#0278F7" d="M 1060 652 L 1055 658 L 1056 700 L 1063 704 L 1101 704 L 1105 702 L 1108 698 L 1107 655 L 1100 651 Z M 985 655 L 983 659 L 983 696 L 988 703 L 1027 704 L 1035 701 L 1037 697 L 1037 658 L 1034 653 L 1029 651 L 992 651 Z M 916 653 L 912 658 L 913 700 L 920 704 L 961 703 L 965 699 L 966 691 L 965 656 L 961 652 L 956 651 L 921 651 Z M 846 652 L 841 658 L 842 700 L 848 704 L 885 704 L 891 702 L 894 698 L 893 655 L 887 651 Z M 641 646 L 607 655 L 574 671 L 545 693 L 497 741 L 479 756 L 449 774 L 431 781 L 410 786 L 379 789 L 334 789 L 328 781 L 293 717 L 288 713 L 190 712 L 183 717 L 142 791 L 142 800 L 182 872 L 187 877 L 286 878 L 293 873 L 334 801 L 424 801 L 443 799 L 472 792 L 505 777 L 522 766 L 564 731 L 590 713 L 614 702 L 641 695 Z M 259 829 L 263 830 L 269 837 L 268 844 L 262 849 L 257 849 L 250 843 L 251 834 Z M 203 821 L 212 820 L 216 823 L 218 831 L 213 838 L 204 838 L 199 833 L 198 828 Z M 274 809 L 278 810 L 280 813 L 280 816 L 277 819 L 274 819 L 270 816 L 271 811 Z M 235 810 L 241 809 L 249 815 L 249 822 L 245 827 L 237 828 L 230 822 L 230 816 Z M 221 787 L 225 787 L 230 793 L 229 798 L 225 801 L 219 800 L 216 796 L 217 791 Z M 283 780 L 292 779 L 297 784 L 298 790 L 293 797 L 284 797 L 279 792 L 279 785 Z M 250 778 L 256 778 L 262 785 L 261 791 L 254 796 L 248 795 L 244 790 L 244 784 Z M 188 777 L 194 779 L 198 784 L 197 793 L 191 797 L 184 796 L 179 790 L 180 782 Z M 258 750 L 265 750 L 271 756 L 271 763 L 266 768 L 258 768 L 252 761 L 253 755 Z M 214 741 L 221 741 L 227 747 L 227 755 L 221 760 L 214 760 L 208 753 L 208 748 Z M 779 660 L 801 651 L 806 651 L 806 644 L 779 643 Z M 741 643 L 741 671 L 766 663 L 766 643 Z M 702 643 L 702 681 L 727 675 L 728 643 Z M 654 644 L 654 692 L 689 685 L 689 643 Z"/>
    <path fill="#069791" d="M 779 585 L 779 595 L 805 594 Z M 741 572 L 741 595 L 766 595 L 766 581 Z M 702 557 L 702 592 L 728 594 L 728 567 Z M 653 541 L 654 588 L 689 591 L 689 552 L 677 546 Z M 1059 524 L 1055 529 L 1056 572 L 1060 575 L 1105 574 L 1108 570 L 1107 526 L 1103 523 Z M 986 525 L 983 531 L 983 568 L 987 574 L 1031 575 L 1036 571 L 1037 530 L 1033 524 L 989 523 Z M 916 524 L 912 529 L 912 569 L 914 573 L 918 575 L 962 574 L 965 570 L 964 526 L 960 523 Z M 846 523 L 841 529 L 842 572 L 846 575 L 891 574 L 894 570 L 894 528 L 889 523 Z M 142 412 L 142 421 L 184 496 L 192 500 L 284 500 L 289 498 L 296 489 L 333 423 L 380 423 L 400 426 L 419 432 L 446 446 L 468 463 L 536 532 L 563 553 L 600 573 L 641 586 L 640 537 L 610 528 L 579 512 L 546 487 L 501 446 L 481 432 L 461 422 L 440 415 L 417 411 L 333 410 L 294 340 L 285 333 L 188 334 L 182 340 Z M 229 363 L 236 360 L 243 361 L 252 370 L 253 379 L 251 384 L 243 390 L 243 401 L 283 424 L 284 442 L 290 447 L 293 455 L 291 462 L 285 468 L 274 469 L 267 464 L 264 458 L 266 448 L 273 442 L 273 429 L 243 412 L 243 442 L 248 445 L 252 452 L 251 461 L 246 467 L 242 469 L 234 469 L 230 467 L 224 459 L 224 451 L 226 447 L 232 442 L 233 412 L 202 429 L 202 442 L 206 444 L 211 451 L 211 460 L 208 465 L 201 469 L 193 469 L 189 467 L 184 461 L 184 449 L 192 442 L 192 425 L 196 421 L 233 400 L 233 390 L 225 384 L 223 379 L 224 369 Z"/>
    <path fill="#EB317A" d="M 258 634 L 258 647 L 278 647 L 278 628 L 266 628 L 269 629 L 268 637 L 260 637 Z M 270 636 L 277 637 L 276 647 L 265 646 L 265 642 Z M 228 628 L 228 647 L 247 647 L 247 628 L 247 632 L 236 641 L 233 647 L 228 646 L 228 634 L 238 628 Z M 198 628 L 198 647 L 217 647 L 217 632 L 212 632 L 212 636 L 217 639 L 217 646 L 204 647 L 202 641 L 198 639 L 198 632 L 202 628 L 212 628 Z M 258 601 L 259 618 L 278 618 L 273 618 L 272 613 L 269 610 L 263 610 Z M 258 598 L 269 598 L 271 603 L 277 609 L 278 608 L 278 598 Z M 228 598 L 228 618 L 247 618 L 247 602 L 246 605 L 242 606 L 241 610 L 234 613 L 233 618 L 228 617 L 228 607 L 232 603 L 235 603 L 238 598 L 247 598 Z M 198 598 L 198 618 L 217 618 L 217 604 L 208 606 L 215 614 L 214 618 L 207 618 L 204 612 L 198 609 L 198 604 L 206 603 L 207 598 L 217 598 Z M 805 597 L 779 597 L 779 641 L 798 641 L 795 641 L 793 638 L 797 633 L 804 634 L 805 638 L 805 607 L 804 609 L 799 610 L 796 608 L 797 600 L 800 597 Z M 791 609 L 794 617 L 789 618 L 786 627 L 780 627 L 779 615 L 782 614 L 785 609 Z M 741 596 L 741 641 L 742 639 L 744 641 L 750 641 L 748 640 L 749 637 L 752 634 L 759 633 L 762 628 L 762 624 L 766 622 L 766 602 L 763 597 L 755 597 L 756 602 L 749 606 L 746 601 L 746 598 L 749 597 Z M 742 629 L 746 634 L 743 639 L 741 638 Z M 742 612 L 747 615 L 746 622 L 743 626 L 741 625 Z M 702 595 L 702 640 L 722 641 L 727 635 L 728 641 L 728 596 L 728 606 L 724 607 L 714 601 L 716 595 Z M 703 633 L 705 632 L 709 636 L 704 637 Z M 723 615 L 728 615 L 727 621 L 722 618 Z M 704 613 L 707 613 L 709 616 L 709 619 L 706 623 L 703 622 Z M 654 591 L 654 641 L 672 641 L 672 637 L 681 637 L 686 629 L 689 630 L 689 641 L 689 597 L 689 599 L 686 601 L 676 601 L 675 592 L 669 592 L 669 594 L 665 597 L 659 597 L 658 592 L 661 591 Z M 655 614 L 660 620 L 660 624 L 656 626 L 654 625 Z M 658 599 L 659 603 L 655 608 L 654 602 Z M 1060 589 L 1059 590 L 1077 589 L 1078 591 L 1076 593 L 1067 593 L 1060 602 L 1055 601 L 1055 595 L 1056 637 L 1061 641 L 1104 640 L 1108 635 L 1108 595 L 1106 591 L 1104 590 L 1102 597 L 1097 598 L 1091 596 L 1088 590 L 1102 589 Z M 1071 639 L 1074 636 L 1080 636 L 1082 640 L 1072 641 Z M 1101 618 L 1102 621 L 1099 624 L 1098 621 Z M 1056 604 L 1060 605 L 1060 613 L 1058 614 L 1062 615 L 1061 623 L 1058 628 L 1055 627 Z M 989 589 L 988 590 L 992 590 L 993 595 L 996 597 L 991 601 L 987 600 L 984 597 L 985 593 L 984 636 L 986 639 L 990 641 L 1029 641 L 1020 641 L 1018 637 L 1021 633 L 1027 634 L 1030 632 L 1030 626 L 1033 621 L 1037 622 L 1037 633 L 1036 593 L 1031 589 Z M 991 639 L 994 634 L 997 634 L 999 637 L 998 641 L 992 641 Z M 985 621 L 989 623 L 989 628 L 987 630 L 984 629 Z M 1028 596 L 1037 598 L 1037 610 L 1030 612 L 1031 615 L 1029 622 L 1026 619 L 1026 615 L 1022 618 L 1019 617 L 1019 614 L 1023 613 L 1017 609 L 1018 605 L 1027 605 L 1029 609 L 1029 602 L 1026 602 L 1026 598 Z M 996 595 L 997 589 L 1025 590 L 1024 593 L 1009 593 L 1007 596 Z M 916 590 L 914 592 L 917 594 L 917 596 L 914 597 L 913 594 L 912 596 L 913 637 L 919 641 L 958 641 L 954 640 L 955 634 L 964 633 L 965 635 L 961 640 L 965 635 L 964 592 L 960 589 L 955 589 L 958 590 L 956 595 L 950 597 L 946 601 L 942 600 L 944 602 L 942 605 L 935 605 L 932 602 L 935 600 L 933 596 L 941 589 L 947 589 Z M 919 638 L 923 636 L 924 640 L 920 641 Z M 914 604 L 917 606 L 916 610 L 919 612 L 920 616 L 919 623 L 915 629 L 912 628 L 912 607 Z M 964 601 L 965 617 L 963 618 L 962 622 L 954 622 L 954 630 L 950 634 L 942 636 L 940 641 L 930 641 L 930 637 L 936 633 L 943 624 L 946 623 L 947 619 L 950 618 L 952 610 L 957 609 L 960 602 Z M 922 590 L 932 589 L 933 593 L 926 594 Z M 882 589 L 884 589 L 887 594 L 889 592 L 893 593 L 889 589 Z M 846 589 L 842 593 L 844 592 L 849 595 L 847 603 L 841 601 L 841 595 L 842 637 L 848 641 L 887 641 L 885 640 L 885 637 L 893 633 L 894 635 L 890 640 L 894 635 L 894 595 L 894 626 L 879 638 L 876 634 L 870 634 L 869 631 L 873 626 L 878 627 L 877 622 L 881 621 L 880 616 L 882 615 L 885 619 L 889 614 L 891 614 L 891 609 L 881 602 L 881 598 L 875 596 L 874 600 L 872 598 L 869 601 L 872 604 L 867 605 L 864 603 L 861 596 L 858 596 L 851 591 L 852 589 L 875 589 Z M 847 628 L 851 627 L 852 629 L 855 627 L 856 629 L 862 629 L 866 636 L 871 637 L 871 640 L 869 641 L 868 639 L 864 639 L 863 641 L 850 641 L 849 639 L 852 637 L 852 632 L 850 632 Z M 865 624 L 867 625 L 867 629 L 863 630 L 862 626 Z M 867 617 L 868 622 L 860 625 L 859 623 L 864 620 L 865 617 Z M 870 612 L 872 613 L 872 618 L 868 617 Z M 842 611 L 849 620 L 843 627 L 841 626 Z M 850 606 L 853 604 L 855 607 L 860 605 L 861 609 L 858 609 L 857 612 L 853 612 Z M 873 600 L 880 603 L 880 611 L 878 613 L 876 612 L 876 609 L 872 603 Z M 258 575 L 259 587 L 259 584 L 262 583 L 262 580 Z M 258 568 L 270 568 L 271 574 L 276 575 L 277 578 L 278 568 Z M 228 568 L 237 568 L 239 573 L 247 576 L 247 586 L 245 587 L 240 581 L 236 581 L 235 579 L 231 578 L 228 573 L 228 588 L 247 588 L 247 568 Z M 198 568 L 198 588 L 198 584 L 202 581 L 198 576 L 199 568 L 204 568 L 217 578 L 217 571 L 214 570 L 217 568 Z M 142 602 L 143 613 L 164 650 L 161 645 L 162 640 L 164 642 L 166 641 L 173 643 L 172 649 L 168 652 L 165 652 L 178 675 L 176 671 L 181 668 L 184 669 L 185 674 L 182 677 L 179 677 L 182 683 L 187 688 L 192 690 L 283 690 L 290 687 L 296 679 L 331 615 L 338 612 L 375 612 L 438 616 L 627 640 L 637 640 L 632 640 L 631 637 L 640 632 L 641 641 L 641 591 L 605 592 L 616 592 L 617 594 L 615 598 L 605 597 L 603 593 L 586 593 L 602 594 L 601 600 L 596 605 L 594 603 L 588 603 L 584 594 L 567 594 L 582 595 L 581 597 L 576 598 L 566 597 L 565 595 L 473 599 L 436 599 L 437 601 L 434 603 L 432 600 L 334 600 L 337 602 L 331 609 L 331 616 L 327 616 L 329 619 L 325 624 L 319 618 L 320 612 L 317 609 L 319 608 L 319 601 L 323 597 L 330 595 L 317 572 L 319 575 L 317 579 L 315 578 L 312 580 L 310 578 L 312 570 L 316 570 L 312 563 L 309 568 L 302 568 L 297 565 L 298 562 L 301 561 L 300 559 L 304 554 L 307 554 L 299 540 L 301 543 L 299 546 L 294 544 L 294 537 L 296 536 L 298 538 L 290 525 L 287 524 L 289 526 L 285 530 L 276 528 L 278 523 L 285 523 L 190 523 L 186 525 L 177 539 L 181 540 L 180 543 L 178 544 L 176 541 L 157 575 L 159 577 L 156 577 L 148 591 L 151 593 L 150 596 L 147 597 L 147 593 Z M 286 682 L 290 681 L 292 685 L 289 687 Z M 246 659 L 258 658 L 259 660 L 247 661 Z M 310 631 L 317 632 L 319 635 L 313 647 L 309 642 L 310 639 L 307 637 L 307 634 Z M 574 631 L 578 629 L 581 631 L 581 633 L 578 634 Z M 150 614 L 154 615 L 156 619 L 156 622 L 152 625 L 149 624 L 146 618 Z M 290 602 L 295 608 L 293 621 L 289 620 Z M 342 611 L 343 605 L 347 600 L 396 601 L 395 603 L 389 603 L 390 605 L 387 606 L 385 612 L 382 610 L 380 612 L 378 610 L 374 612 L 373 608 L 369 609 L 367 612 L 364 612 L 361 604 L 354 606 L 352 609 L 350 609 L 349 612 Z M 447 600 L 456 599 L 457 601 L 455 603 L 450 603 Z M 487 599 L 494 598 L 495 600 L 488 601 Z M 509 598 L 521 597 L 522 599 L 512 601 Z M 549 596 L 564 595 L 565 597 L 558 599 L 557 601 L 551 601 Z M 630 592 L 640 591 L 641 600 L 634 601 Z M 181 570 L 186 573 L 186 583 L 183 582 L 180 578 L 179 572 Z M 290 566 L 297 567 L 297 574 L 293 580 L 289 579 Z M 184 557 L 188 556 L 189 560 L 193 557 L 283 557 L 288 562 L 289 651 L 286 656 L 291 659 L 289 652 L 289 639 L 292 638 L 295 641 L 293 650 L 298 651 L 299 654 L 306 659 L 303 665 L 298 661 L 293 665 L 296 663 L 301 667 L 298 674 L 293 672 L 293 669 L 290 666 L 291 664 L 284 664 L 280 661 L 274 660 L 275 658 L 280 658 L 206 658 L 212 658 L 213 660 L 207 665 L 195 664 L 192 662 L 192 659 L 195 658 L 190 656 L 187 651 L 187 635 L 185 644 L 173 644 L 174 639 L 178 639 L 180 642 L 184 625 L 186 624 L 187 627 L 187 601 L 187 604 L 185 605 L 182 593 L 185 592 L 187 597 L 187 564 L 186 567 L 183 564 Z M 245 555 L 248 553 L 255 554 L 254 557 L 246 557 Z M 286 554 L 284 557 L 273 556 L 275 553 L 283 551 Z M 198 554 L 200 551 L 206 552 L 209 556 L 199 557 Z M 216 528 L 217 523 L 247 524 L 246 526 L 237 526 L 240 528 L 239 530 L 230 530 L 229 528 L 228 530 L 224 530 L 220 527 L 219 529 Z M 183 529 L 190 523 L 197 524 L 193 530 L 185 531 Z"/>
    <path fill="#EC387E" d="M 292 683 L 287 682 L 288 687 L 285 688 L 289 688 Z M 176 670 L 178 676 L 181 679 L 184 674 L 183 669 L 179 671 Z M 193 657 L 193 662 L 207 664 L 212 660 L 205 658 L 194 659 Z M 1065 640 L 1086 640 L 1082 640 L 1080 637 L 1074 637 L 1071 640 Z M 806 636 L 804 633 L 803 635 L 797 634 L 793 640 L 785 640 L 806 641 Z M 324 629 L 322 629 L 319 634 L 313 632 L 308 634 L 312 645 L 311 649 L 313 649 L 315 642 L 319 638 L 319 634 L 322 633 Z M 258 629 L 260 636 L 268 637 L 266 645 L 263 646 L 278 646 L 278 635 L 275 637 L 269 636 L 269 629 Z M 247 629 L 239 628 L 236 629 L 233 633 L 230 633 L 229 646 L 234 646 L 236 648 L 233 644 L 244 633 L 246 634 Z M 199 628 L 199 640 L 201 639 L 204 643 L 202 646 L 218 647 L 216 645 L 216 639 L 211 636 L 211 632 L 216 632 L 217 629 Z M 583 627 L 578 627 L 578 630 L 571 632 L 576 632 L 577 634 L 583 633 L 580 632 L 580 629 Z M 1036 622 L 1033 622 L 1031 626 L 1031 632 L 1027 635 L 1021 634 L 1021 636 L 1018 637 L 1018 640 L 999 640 L 998 635 L 994 635 L 991 640 L 1033 640 L 1037 634 Z M 766 623 L 764 621 L 763 628 L 759 634 L 751 635 L 747 640 L 761 641 L 766 632 Z M 640 621 L 640 632 L 631 639 L 637 639 L 640 641 Z M 1100 617 L 1100 620 L 1096 622 L 1093 627 L 1095 629 L 1096 625 L 1099 627 L 1101 626 Z M 145 617 L 149 621 L 151 628 L 154 630 L 156 637 L 161 642 L 160 644 L 164 648 L 165 653 L 168 655 L 167 652 L 171 649 L 172 644 L 185 644 L 187 628 L 185 624 L 183 636 L 178 640 L 167 643 L 165 641 L 160 641 L 152 628 L 153 624 L 156 625 L 154 615 Z M 727 613 L 723 616 L 727 622 Z M 742 612 L 743 641 L 743 637 L 746 634 L 743 632 L 742 626 L 745 622 L 746 615 Z M 704 612 L 702 613 L 702 637 L 708 636 L 704 632 L 704 623 L 708 619 L 707 614 Z M 655 612 L 655 625 L 658 625 L 659 620 Z M 842 609 L 843 626 L 850 619 L 852 620 L 852 618 L 848 620 Z M 850 612 L 857 612 L 861 609 L 859 605 L 856 608 L 854 605 L 851 606 L 853 611 Z M 914 604 L 913 628 L 916 627 L 920 617 L 918 612 L 915 610 L 916 606 Z M 258 599 L 263 609 L 269 609 L 273 613 L 273 617 L 278 617 L 278 609 L 270 603 L 271 599 L 278 599 Z M 780 598 L 780 633 L 780 627 L 786 626 L 789 619 L 792 617 L 797 617 L 799 619 L 794 610 L 785 610 L 782 615 L 780 614 Z M 248 598 L 235 599 L 238 601 L 229 607 L 229 617 L 233 617 L 233 613 L 241 609 L 243 604 L 246 605 Z M 218 598 L 199 599 L 207 600 L 206 604 L 199 603 L 199 610 L 204 611 L 207 617 L 214 617 L 214 614 L 207 606 L 217 604 L 218 617 Z M 754 597 L 747 598 L 750 606 L 756 602 L 756 598 Z M 966 596 L 964 601 L 961 602 L 960 607 L 957 610 L 953 610 L 950 615 L 951 618 L 945 621 L 947 622 L 945 625 L 940 628 L 934 627 L 938 631 L 936 634 L 933 632 L 934 634 L 929 640 L 924 640 L 924 637 L 921 635 L 920 639 L 917 639 L 918 641 L 942 640 L 942 635 L 950 633 L 955 625 L 958 626 L 956 624 L 957 621 L 964 622 L 964 633 L 956 634 L 955 639 L 953 640 L 959 641 L 965 636 L 964 631 L 966 630 L 966 608 L 964 607 L 964 604 L 966 603 Z M 799 596 L 800 598 L 798 600 L 797 608 L 804 609 L 806 612 L 806 618 L 806 597 L 802 598 Z M 542 597 L 523 596 L 522 598 L 499 597 L 498 599 L 481 599 L 494 600 L 500 598 L 509 598 L 512 600 L 517 600 L 525 597 Z M 1037 595 L 1035 598 L 1023 596 L 1027 598 L 1027 603 L 1029 602 L 1030 606 L 1028 607 L 1022 603 L 1018 603 L 1022 604 L 1021 606 L 1018 606 L 1018 610 L 1015 612 L 1020 614 L 1019 618 L 1024 617 L 1026 614 L 1028 622 L 1029 621 L 1029 612 L 1036 610 Z M 713 596 L 715 597 L 715 601 L 721 603 L 727 608 L 727 596 Z M 676 592 L 676 600 L 687 600 L 690 602 L 690 612 L 688 613 L 688 629 L 681 638 L 672 638 L 671 640 L 690 641 L 689 593 Z M 618 593 L 582 593 L 581 595 L 564 594 L 563 596 L 543 595 L 549 596 L 551 600 L 557 600 L 558 598 L 565 596 L 575 597 L 576 600 L 577 596 L 586 595 L 588 602 L 594 602 L 595 605 L 600 600 L 600 596 L 602 594 L 605 596 L 615 597 L 615 595 Z M 318 610 L 321 612 L 320 618 L 325 624 L 328 622 L 328 618 L 332 615 L 330 613 L 331 607 L 337 601 L 347 602 L 344 605 L 342 612 L 338 613 L 375 613 L 376 611 L 387 611 L 385 609 L 390 602 L 434 602 L 437 600 L 334 601 L 329 592 L 327 592 L 328 595 L 320 601 Z M 368 609 L 373 608 L 374 610 L 372 613 L 370 613 Z M 363 605 L 362 611 L 355 611 L 354 613 L 349 612 L 349 609 L 354 605 L 360 603 Z M 183 592 L 182 594 L 185 605 L 187 598 L 185 592 Z M 659 596 L 665 596 L 670 593 L 662 591 L 659 592 Z M 640 601 L 640 591 L 629 592 L 631 593 L 631 596 L 634 600 L 638 599 Z M 1028 590 L 987 591 L 985 597 L 983 598 L 983 633 L 988 628 L 988 623 L 985 619 L 985 609 L 987 608 L 987 605 L 985 604 L 986 599 L 992 600 L 998 595 L 1007 595 L 1009 592 L 1024 592 L 1025 590 Z M 991 591 L 996 590 L 997 595 L 993 596 Z M 1108 594 L 1103 589 L 1087 590 L 1092 597 L 1100 597 L 1104 592 Z M 1080 590 L 1066 589 L 1057 592 L 1056 628 L 1058 627 L 1061 619 L 1061 615 L 1058 611 L 1059 605 L 1056 603 L 1060 601 L 1067 592 L 1076 592 Z M 959 590 L 918 590 L 922 590 L 926 593 L 932 593 L 935 598 L 933 602 L 938 607 L 947 598 L 956 594 Z M 933 593 L 934 590 L 940 591 L 936 594 Z M 891 590 L 888 594 L 885 593 L 885 591 L 888 590 L 881 589 L 846 590 L 842 594 L 842 602 L 847 604 L 849 601 L 852 603 L 847 600 L 847 598 L 850 596 L 844 593 L 846 590 L 851 590 L 854 593 L 862 596 L 862 600 L 865 601 L 864 604 L 872 604 L 877 609 L 876 615 L 871 613 L 868 609 L 870 615 L 867 618 L 865 615 L 863 615 L 861 617 L 864 616 L 865 619 L 862 622 L 859 622 L 858 620 L 858 622 L 863 625 L 862 630 L 858 630 L 857 627 L 848 628 L 853 632 L 853 637 L 849 640 L 845 639 L 847 641 L 888 641 L 892 637 L 893 594 Z M 863 630 L 867 629 L 870 632 L 870 636 L 866 637 L 863 633 Z M 893 627 L 893 633 L 886 637 L 885 640 L 870 639 L 871 633 L 877 634 L 880 637 L 891 626 Z M 871 625 L 873 629 L 869 631 L 867 627 Z M 867 619 L 869 617 L 881 617 L 882 621 L 877 622 L 879 627 L 875 628 L 867 621 Z M 874 597 L 879 597 L 880 601 L 891 609 L 892 614 L 887 618 L 884 618 L 881 615 L 882 613 L 879 611 L 881 604 L 875 603 Z M 152 586 L 143 603 L 142 611 L 144 612 L 143 607 L 146 605 L 144 600 L 149 596 L 149 591 Z M 258 569 L 258 574 L 263 580 L 263 583 L 260 583 L 258 588 L 263 588 L 264 586 L 278 588 L 278 576 L 270 574 L 271 569 L 278 569 Z M 228 569 L 229 575 L 236 580 L 240 580 L 246 588 L 246 569 Z M 238 570 L 245 569 L 246 575 L 244 576 L 239 574 Z M 181 569 L 181 578 L 186 582 L 185 572 Z M 218 568 L 198 569 L 199 578 L 201 577 L 203 580 L 201 583 L 199 583 L 199 588 L 217 586 L 216 577 L 210 574 L 207 570 L 217 570 Z M 188 557 L 184 558 L 185 566 L 191 559 Z M 266 558 L 258 558 L 255 554 L 248 554 L 245 556 L 219 556 L 256 556 L 257 558 Z M 286 555 L 283 552 L 273 556 L 268 556 L 282 556 L 283 558 Z M 306 551 L 304 557 L 298 562 L 297 566 L 291 567 L 288 564 L 288 651 L 292 655 L 292 658 L 289 659 L 288 657 L 275 659 L 284 663 L 290 663 L 294 672 L 297 674 L 300 672 L 300 668 L 304 665 L 306 658 L 301 657 L 298 652 L 292 650 L 294 641 L 288 635 L 288 626 L 290 625 L 290 621 L 293 620 L 293 613 L 295 612 L 293 611 L 294 608 L 290 602 L 290 591 L 288 590 L 288 584 L 290 583 L 290 580 L 295 577 L 297 566 L 309 567 L 312 565 L 313 571 L 310 580 L 315 578 L 316 580 L 321 581 L 321 578 L 317 574 L 316 569 L 313 567 Z M 294 662 L 298 660 L 302 663 L 302 665 L 299 666 Z M 198 556 L 210 556 L 201 551 Z M 172 550 L 155 580 L 159 575 L 161 575 L 162 567 L 166 560 L 170 557 L 169 555 Z M 294 533 L 295 544 L 301 545 L 301 542 Z M 183 530 L 192 530 L 197 524 L 212 524 L 213 528 L 216 526 L 217 528 L 241 529 L 244 528 L 247 524 L 269 524 L 270 522 L 274 522 L 277 528 L 285 529 L 289 526 L 292 529 L 286 523 L 283 524 L 282 522 L 193 522 L 192 524 L 186 526 Z"/>
    <path fill="#FCFCFD" d="M 210 1014 L 195 1016 L 187 1019 L 178 1027 L 176 1033 L 178 1028 L 188 1019 L 201 1015 L 210 1016 Z M 237 965 L 219 967 L 210 972 L 203 982 L 201 993 L 203 983 L 211 972 L 220 967 Z M 643 713 L 643 784 L 624 802 L 610 820 L 577 873 L 550 912 L 536 929 L 511 953 L 493 966 L 468 979 L 440 988 L 409 992 L 334 992 L 295 1061 L 286 1068 L 190 1068 L 287 1068 L 295 1062 L 335 992 L 410 992 L 441 988 L 478 975 L 512 953 L 536 930 L 547 917 L 579 871 L 610 821 L 624 803 L 643 785 Z M 643 646 L 644 694 L 642 697 L 615 704 L 587 717 L 563 734 L 521 769 L 498 783 L 466 796 L 435 802 L 334 803 L 296 872 L 290 878 L 283 881 L 193 881 L 288 880 L 296 873 L 335 803 L 437 802 L 467 796 L 499 783 L 522 769 L 568 731 L 588 717 L 616 704 L 643 697 Z M 250 629 L 250 642 L 248 649 L 228 649 L 250 649 Z M 397 615 L 335 614 L 296 683 L 287 691 L 192 692 L 286 692 L 296 684 L 335 615 Z M 896 595 L 897 631 L 894 639 L 888 643 L 848 643 L 889 643 L 893 641 L 897 634 Z M 1109 593 L 1110 636 L 1108 639 L 1102 643 L 1062 643 L 1103 643 L 1109 639 L 1111 634 L 1111 597 Z M 808 592 L 808 654 L 802 661 L 778 679 L 798 665 L 808 655 Z M 281 559 L 195 559 L 190 562 L 190 653 L 190 563 L 193 560 L 200 559 Z M 768 557 L 768 687 L 741 708 L 768 688 Z M 730 526 L 730 716 L 702 737 L 704 737 L 730 717 Z M 692 495 L 692 745 L 654 775 L 692 746 Z M 643 456 L 642 523 L 644 523 Z M 380 425 L 334 425 L 295 495 L 286 502 L 191 502 L 287 502 L 295 496 L 335 425 Z M 235 413 L 234 443 L 227 449 L 226 459 L 227 450 L 235 443 Z M 235 391 L 235 400 L 233 403 L 194 425 L 194 443 L 187 448 L 185 458 L 187 449 L 194 444 L 195 425 L 234 403 Z M 414 240 L 381 235 L 335 235 L 296 305 L 291 310 L 283 313 L 193 313 L 285 313 L 292 310 L 302 296 L 336 235 L 392 236 Z M 265 217 L 264 248 L 234 262 L 235 263 L 264 249 Z"/>
    <path fill="#E85116" d="M 783 571 L 785 575 L 782 578 L 780 577 L 779 584 L 806 592 L 805 588 L 800 583 L 797 583 L 795 579 L 786 574 L 784 570 Z M 793 580 L 796 582 L 795 586 L 791 585 Z M 727 557 L 724 562 L 718 562 L 727 565 Z M 748 543 L 752 549 L 760 553 L 760 551 L 758 551 L 754 546 L 751 546 L 749 542 Z M 1061 509 L 1102 509 L 1091 509 L 1090 507 L 1089 509 L 1085 509 L 1084 507 L 1075 507 L 1074 509 L 1072 507 L 1063 507 Z M 917 507 L 919 509 L 959 509 L 950 509 L 949 507 L 946 507 L 945 509 L 942 507 L 940 509 L 937 509 L 936 507 L 934 509 L 931 507 Z M 1035 505 L 1029 509 L 1025 509 L 1024 507 L 1020 507 L 1019 509 L 1015 509 L 1014 507 L 1001 507 L 1000 509 L 997 507 L 989 507 L 990 509 L 1030 509 Z M 842 505 L 847 509 L 888 509 L 884 509 L 883 507 L 845 507 Z M 703 505 L 702 555 L 704 556 L 702 555 L 702 547 L 704 546 L 704 534 L 702 533 L 702 528 L 704 527 L 704 517 L 702 516 Z M 687 492 L 688 506 L 690 507 L 688 510 L 690 512 L 690 495 Z M 654 465 L 655 473 L 658 472 L 662 474 L 661 471 L 659 471 Z M 966 462 L 966 470 L 964 471 L 964 482 L 966 483 L 966 502 Z M 1022 455 L 1026 458 L 1031 458 L 1034 456 Z M 551 318 L 557 329 L 560 330 L 554 322 L 553 318 Z M 267 258 L 264 257 L 253 264 Z M 204 258 L 207 260 L 212 258 L 207 255 Z M 200 242 L 196 246 L 197 250 L 195 252 L 188 252 L 184 255 L 188 252 L 194 252 L 195 254 L 200 249 Z M 193 213 L 194 216 L 200 220 L 200 218 L 195 213 Z M 203 197 L 203 199 L 208 198 L 212 202 L 210 197 Z"/>
  </g>
</svg>
